<svg width="22" height="23" viewBox="0 0 22 23" fill="none" xmlns="http://www.w3.org/2000/svg">
<path d="M5.10993 11.0162C5.10993 10.5275 5.50608 10.1314 5.99475 10.1314H10.1152V6.01092C10.1152 5.52225 10.5113 5.1261 11 5.1261C11.4887 5.1261 11.8848 5.52225 11.8848 6.01092V10.1314H16.0053C16.494 10.1314 16.8902 10.5275 16.8902 11.0162C16.8902 11.5049 16.494 11.901 16.0053 11.901H11.8848V16.0215C11.8848 16.5102 11.4887 16.9063 11 16.9063C10.5113 16.9063 10.1152 16.5102 10.1152 16.0215V11.901H5.99475C5.50608 11.901 5.10993 11.5049 5.10993 11.0162Z" fill="black"/>
<path fill-rule="evenodd" clip-rule="evenodd" d="M5.47489 1.30533C9.11746 0.898222 12.8825 0.898222 16.5251 1.30533C18.6798 1.54615 20.4198 3.2434 20.6733 5.41058C21.1089 9.13499 21.1089 12.8975 20.6733 16.6219C20.4198 18.7891 18.6798 20.4863 16.5251 20.7271C12.8825 21.1342 9.11746 21.1342 5.47489 20.7271C3.3202 20.4863 1.58017 18.7891 1.3267 16.6219C0.891099 12.8975 0.891099 9.13499 1.3267 5.41058C1.58017 3.2434 3.3202 1.54615 5.47489 1.30533ZM16.3286 3.06402C12.8166 2.67151 9.18339 2.67151 5.67145 3.06402C4.3213 3.21492 3.24057 4.28053 3.08436 5.61615C2.66473 9.20398 2.66473 12.8285 3.08436 16.4163C3.24057 17.7519 4.32129 18.8175 5.67145 18.9684C9.18339 19.3609 12.8166 19.3609 16.3286 18.9684C17.6787 18.8175 18.7594 17.7519 18.9156 16.4163C19.3353 12.8285 19.3353 9.20398 18.9156 5.61615C18.7594 4.28053 17.6787 3.21492 16.3286 3.06402Z" fill="black"/>
</svg>
