<svg width="20" height="22" viewBox="0 0 20 22" fill="none" xmlns="http://www.w3.org/2000/svg">
<path fill-rule="evenodd" clip-rule="evenodd" d="M11.679 3.29188C10.7407 2.39156 9.2593 2.39156 8.32104 3.29188L3.33485 8.07642C3.21268 8.19364 3.1305 8.34635 3.09996 8.51288C2.50274 11.7697 2.45866 15.1039 2.96956 18.3754L3.09083 19.1519H6.29874V12.4576C6.29874 12.0112 6.66064 11.6493 7.10706 11.6493H12.8929C13.3394 11.6493 13.7013 12.0112 13.7013 12.4576V19.1519H16.9092L17.0304 18.3754C17.5413 15.1039 17.4973 11.7697 16.9 8.51288C16.8695 8.34635 16.7873 8.19364 16.6652 8.07642L11.679 3.29188ZM7.20173 2.1254C8.76551 0.624868 11.2345 0.624868 12.7983 2.1254L17.7845 6.90994C18.1515 7.26214 18.3984 7.72094 18.4902 8.22129C19.1201 11.6568 19.1666 15.1739 18.6277 18.6248L18.4329 19.8723C18.3523 20.3882 17.908 20.7686 17.3858 20.7686H12.8929C12.4465 20.7686 12.0846 20.4067 12.0846 19.9603V13.2659H7.91538V19.9603C7.91538 20.4067 7.55349 20.7686 7.10706 20.7686H2.61417C2.09202 20.7686 1.64767 20.3882 1.5671 19.8723L1.37228 18.6248C0.833351 15.1739 0.879854 11.6568 1.50984 8.22129C1.60159 7.72094 1.84849 7.26214 2.21554 6.90993L7.20173 2.1254Z" fill="black"/>
</svg>

