<svg width="22" height="22" viewBox="0 0 22 22" fill="black" xmlns="http://www.w3.org/2000/svg">
<path d="M11.2867 11.22C11.7724 10.7581 12.162 10.1869 12.429 9.54502C12.6961 8.90316 12.8343 8.20571 12.8343 7.5C12.8343 6.17392 12.3547 4.90215 11.5011 3.96447C10.6475 3.02678 9.48978 2.5 8.28262 2.5C7.07545 2.5 5.91772 3.02678 5.06412 3.96447C4.21053 4.90215 3.73098 6.17392 3.73098 7.5C3.73097 8.20571 3.86917 8.90316 4.13619 9.54502C4.40321 10.1869 4.79281 10.7581 5.27854 11.22C4.00421 11.8539 2.92303 12.8775 2.16429 14.1685C1.40555 15.4596 1.00134 16.9633 1 18.5C1 18.7652 1.09591 19.0196 1.26663 19.2071C1.43735 19.3946 1.66889 19.5 1.91033 19.5C2.15176 19.5 2.38331 19.3946 2.55403 19.2071C2.72474 19.0196 2.82065 18.7652 2.82065 18.5C2.82065 16.9087 3.39611 15.3826 4.42043 14.2574C5.44474 13.1321 6.83401 12.5 8.28262 12.5C9.73122 12.5 11.1205 13.1321 12.1448 14.2574C13.1691 15.3826 13.7446 16.9087 13.7446 18.5C13.7446 18.7652 13.8405 19.0196 14.0112 19.2071C14.1819 19.3946 14.4135 19.5 14.6549 19.5C14.8963 19.5 15.1279 19.3946 15.2986 19.2071C15.4693 19.0196 15.5652 18.7652 15.5652 18.5C15.5639 16.9633 15.1597 15.4596 14.4009 14.1685C13.6422 12.8775 12.561 11.8539 11.2867 11.22V11.22ZM8.28262 10.5C7.74248 10.5 7.21447 10.3241 6.76536 9.99441C6.31626 9.66476 5.96622 9.19623 5.75952 8.64805C5.55282 8.09987 5.49873 7.49667 5.60411 6.91473C5.70949 6.33279 5.96959 5.79824 6.35152 5.37868C6.73346 4.95912 7.22007 4.6734 7.74983 4.55764C8.27959 4.44189 8.8287 4.5013 9.32772 4.72836C9.82674 4.95542 10.2533 5.33994 10.5533 5.83329C10.8534 6.32664 11.0136 6.90666 11.0136 7.5C11.0136 8.29565 10.7259 9.05871 10.2137 9.62132C9.70155 10.1839 9.00692 10.5 8.28262 10.5ZM17.1492 10.82C17.7318 10.0993 18.1123 9.20905 18.2451 8.25634C18.3778 7.30362 18.257 6.32907 17.8973 5.45C17.5376 4.57093 16.9542 3.8248 16.2175 3.30142C15.4807 2.77805 14.622 2.49974 13.7446 2.5C13.5031 2.5 13.2716 2.60536 13.1009 2.79289C12.9302 2.98043 12.8343 3.23478 12.8343 3.5C12.8343 3.76522 12.9302 4.01957 13.1009 4.20711C13.2716 4.39464 13.5031 4.5 13.7446 4.5C14.4689 4.5 15.1635 4.81607 15.6757 5.37868C16.1878 5.94129 16.4756 6.70435 16.4756 7.5C16.4743 8.02524 16.3475 8.5409 16.1078 8.99542C15.8682 9.44994 15.5242 9.82738 15.1101 10.09C14.9751 10.1755 14.8624 10.2977 14.7827 10.4447C14.703 10.5918 14.659 10.7589 14.6549 10.93C14.6511 11.0998 14.6867 11.2678 14.7584 11.4183C14.83 11.5687 14.9354 11.6967 15.0646 11.79L15.4196 12.05L15.5379 12.12C16.6352 12.6917 17.561 13.596 18.2061 14.7263C18.8512 15.8566 19.1888 17.1659 19.1792 18.5C19.1792 18.7652 19.2751 19.0196 19.4459 19.2071C19.6166 19.3946 19.8481 19.5 20.0896 19.5C20.331 19.5 20.5625 19.3946 20.7333 19.2071C20.904 19.0196 20.9999 18.7652 20.9999 18.5C21.0073 16.9654 20.6574 15.4543 19.9835 14.1101C19.3095 12.7659 18.3339 11.6333 17.1492 10.82V10.82Z"/>
</svg>


