<svg width="23" height="22" viewBox="0 0 23 22" fill="black" xmlns="http://www.w3.org/2000/svg">
<path d="M20.7309 19.3109L17.0209 15.6309C18.461 13.8353 19.1584 11.5562 18.9697 9.2622C18.781 6.9682 17.7206 4.83368 16.0064 3.29754C14.2923 1.76141 12.0547 0.940411 9.75382 1.00337C7.45294 1.06633 5.26362 2.00846 3.63604 3.63604C2.00846 5.26362 1.06633 7.45294 1.00337 9.75382C0.940411 12.0547 1.76141 14.2923 3.29754 16.0064C4.83368 17.7206 6.9682 18.781 9.2622 18.9697C11.5562 19.1584 13.8353 18.461 15.6309 17.0209L19.3109 20.7009C19.4039 20.7946 19.5145 20.869 19.6363 20.9198C19.7582 20.9706 19.8889 20.9967 20.0209 20.9967C20.1529 20.9967 20.2836 20.9706 20.4055 20.9198C20.5273 20.869 20.6379 20.7946 20.7309 20.7009C20.9111 20.5144 21.0119 20.2652 21.0119 20.0059C21.0119 19.7466 20.9111 19.4974 20.7309 19.3109V19.3109ZM10.0209 17.0209C8.63643 17.0209 7.28305 16.6104 6.13191 15.8412C4.98076 15.072 4.08356 13.9788 3.55374 12.6997C3.02393 11.4206 2.88531 10.0131 3.1554 8.65527C3.4255 7.2974 4.09219 6.05012 5.07115 5.07115C6.05012 4.09219 7.2974 3.4255 8.65527 3.1554C10.0131 2.88531 11.4206 3.02393 12.6997 3.55374C13.9788 4.08356 15.072 4.98076 15.8412 6.13191C16.6104 7.28305 17.0209 8.63643 17.0209 10.0209C17.0209 11.8774 16.2834 13.6579 14.9706 14.9706C13.6579 16.2834 11.8774 17.0209 10.0209 17.0209V17.0209Z"/>
</svg>


